<mxfile host="app.diagrams.net" modified="2024-05-22T15:45:23.052Z" agent="Mozilla/5.0 (Macintosh; Intel Mac OS X 10_15_7) AppleWebKit/537.36 (KHTML, like Gecko) Chrome/124.0.0.0 Safari/537.36" version="24.4.6" etag="qulOEszbWv1UeXo6wwAv" type="github">
  <diagram name="Page-1" id="-Y3hG_Z5aiDi1apG5iPK">
    <mxGraphModel>
      <root>
        <mxCell id="0" />
        <mxCell id="1" parent="0" />
      </root>
    </mxGraphModel>
  </diagram>
</mxfile>
